# xmcd
#
# Track frame offsets:
#	150
#	11184
#	27010
#	40703
#	53970
#	69496
#	88120
#	102351
#	117346
#	132518
#	146743
#	164307
#	175574
#	193336
#	207738
#
# Disc length: 2902 seconds
#
# Revision: 1
# Processed by: cddbd v1.5.2PL0 Copyright (c) Steve Scherf et al.
# Submitted via: audiograbber 1.83.01
#
DISCID=dc0b540f
DTITLE=Tom Astor - Leben Pur
DYEAR=1900
DGENRE=Country
TTITLE0=Wer hat ein Herz, das nie bricht
TTITLE1=Du bist der positivste Schock
TTITLE2=Strohblumen (Sunflower)
TTITLE3=Du hast mich vor mir gerettet
TTITLE4=Jenseits der Zeit 
TTITLE5=Ich brauch' das Leben pur 
TTITLE6=Ein Leben lang
TTITLE7=Sehnsucht
TTITLE8=Oh, Susanna
TTITLE9=Dieser Typ
TTITLE10=Diese Zeit mit dir (Du)
TTITLE11=Ring aus Feuer (Ring Of Fire)
TTITLE12=Wenn ich bete
TTITLE13=When It Comes Down To Us 
TTITLE14=Auf der Autobahn 
EXTD=
EXTT0=
EXTT1=
EXTT2=
EXTT3=
EXTT4=
EXTT5=
EXTT6=
EXTT7=
EXTT8=
EXTT9=
EXTT10=
EXTT11=
EXTT12=
EXTT13=
EXTT14=
PLAYORDER=
